<svg width="20" height="26" viewBox="0 0 20 26" fill="none" xmlns="http://www.w3.org/2000/svg">
<path fill-rule="evenodd" clip-rule="evenodd" d="M1.25 23H18.75C19.0815 23 19.3995 23.1317 19.6339 23.3661C19.8683 23.6005 20 23.9185 20 24.25C20 24.5815 19.8683 24.8995 19.6339 25.1339C19.3995 25.3683 19.0815 25.5 18.75 25.5H1.25C0.918479 25.5 0.600537 25.3683 0.366117 25.1339C0.131696 24.8995 0 24.5815 0 24.25C0 23.9185 0.131696 23.6005 0.366117 23.3661C0.600537 23.1317 0.918479 23 1.25 23ZM0 16.75L12.5 4.25L16.25 8L3.75 20.5H0V16.75ZM13.75 3L16.25 0.5L20 4.25L17.4987 6.75125L13.75 3Z" fill="#1B1C1E"/>
</svg>
