<svg width="16" height="15" viewBox="0 0 16 15" fill="none" xmlns="http://www.w3.org/2000/svg">
<mask id="path-1-inside-1_7347_28609" fill="white">
<path fill-rule="evenodd" clip-rule="evenodd" d="M12.2258 10.8897L9.27242 7.1748L7.27594 9.68608L6.05517 8.00395L3.96228 10.8878H6.32055L6.31907 10.8897H12.2258Z"/>
</mask>
<path fill-rule="evenodd" clip-rule="evenodd" d="M12.2258 10.8897L9.27242 7.1748L7.27594 9.68608L6.05517 8.00395L3.96228 10.8878H6.32055L6.31907 10.8897H12.2258Z" fill="#F7F7F8"/>
<path d="M9.27242 7.1748L9.80221 6.75362L9.27242 6.08722L8.74263 6.75362L9.27242 7.1748ZM12.2258 10.8897V11.5665H13.6285L12.7556 10.4685L12.2258 10.8897ZM7.27594 9.68608L6.72817 10.0836L7.25138 10.8046L7.80573 10.1073L7.27594 9.68608ZM6.05517 8.00395L6.60294 7.60642L6.05517 6.85163L5.5074 7.60642L6.05517 8.00395ZM3.96228 10.8878L3.41451 10.4903L2.63483 11.5646H3.96228V10.8878ZM6.32055 10.8878L6.85034 11.309L7.72326 10.211H6.32055V10.8878ZM6.31907 10.8897L5.78928 10.4685L4.91636 11.5665H6.31907V10.8897ZM8.74263 7.59599L11.696 11.3109L12.7556 10.4685L9.80221 6.75362L8.74263 7.59599ZM7.80573 10.1073L9.80221 7.59599L8.74263 6.75362L6.74614 9.26489L7.80573 10.1073ZM5.5074 8.40148L6.72817 10.0836L7.8237 9.28855L6.60294 7.60642L5.5074 8.40148ZM4.51005 11.2853L6.60294 8.40148L5.5074 7.60642L3.41451 10.4903L4.51005 11.2853ZM6.32055 10.211H3.96228V11.5646H6.32055V10.211ZM6.84886 11.3109L6.85034 11.309L5.79075 10.4666L5.78928 10.4685L6.84886 11.3109ZM12.2258 10.2129H6.31907V11.5665H12.2258V10.2129Z" fill="#F7F7F8" mask="url(#path-1-inside-1_7347_28609)"/>
<circle cx="5.56157" cy="5.06011" r="0.638205" fill="#F7F7F8" stroke="#F7F7F8" stroke-width="0.676815"/>
<rect x="1.43434" y="1.32075" width="13.1302" height="12.3406" rx="0.812178" stroke="#F7F7F8" stroke-width="1.0829"/>
</svg>
