<svg width="21" height="21" viewBox="0 0 21 21" fill="none" xmlns="http://www.w3.org/2000/svg">
<path d="M7.58636 1.1377C11.1623 1.1377 14.0441 3.72756 14.0444 6.90039C14.0444 10.0734 11.1624 12.6641 7.58636 12.6641C7.0301 12.664 6.48981 12.6006 5.97406 12.4824L5.77972 12.4375L5.6098 12.542C4.79977 13.0383 3.84139 13.2582 2.88715 13.165H2.88617C2.77168 13.1541 2.65758 13.138 2.54437 13.1182H2.5434C2.53355 13.1164 2.52573 13.1122 2.51996 13.1074C2.51419 13.1027 2.51066 13.0977 2.50922 13.0938C2.50791 13.09 2.50762 13.0863 2.50824 13.083C2.50891 13.0795 2.51101 13.075 2.51508 13.0703C2.81859 12.7214 3.03899 12.3107 3.15961 11.8682L3.20453 11.6768C3.26649 11.3739 3.11872 11.0732 2.88129 10.8477L2.68207 10.6494C1.71224 9.64074 1.12836 8.33127 1.12836 6.90039C1.12863 3.72764 4.0106 1.13783 7.58636 1.1377Z" fill="#EAEBEC" stroke="#EAEBEC" stroke-width="0.976864"/>
<path d="M13.0387 5.96118C9.23082 5.96138 5.95175 8.81561 5.95175 12.5627C5.95193 16.3097 9.23092 19.1641 13.0387 19.1643C13.5295 19.1643 14.0096 19.1137 14.4742 19.0247C15.3767 19.5163 16.4077 19.7281 17.4352 19.6252V19.6243C17.5708 19.6109 17.7063 19.5937 17.8404 19.5696V19.5686C18.0567 19.5297 18.2594 19.435 18.4273 19.2932C18.5954 19.1512 18.723 18.9671 18.7975 18.76C18.8719 18.553 18.8902 18.3301 18.8512 18.1135L18.8121 17.9534C18.7621 17.7974 18.6813 17.6524 18.5748 17.5266L18.5738 17.5256C18.4434 17.3719 18.3455 17.195 18.2789 17.0061C19.4143 15.8457 20.1265 14.2903 20.1266 12.5627C20.1266 8.81548 16.8467 5.96118 13.0387 5.96118Z" fill="#EAEBEC" stroke="#212225" stroke-width="1.5336"/>
</svg>
