<svg width="21" height="21" viewBox="0 0 21 21" fill="none" xmlns="http://www.w3.org/2000/svg">
<path d="M7.58643 1.1377C11.1623 1.1377 14.0442 3.72756 14.0444 6.90039C14.0444 10.0734 11.1625 12.6641 7.58643 12.6641C7.03016 12.664 6.48987 12.6006 5.97412 12.4824L5.77979 12.4375L5.60986 12.542C4.79983 13.0383 3.84145 13.2582 2.88721 13.165H2.88623C2.77174 13.1541 2.65764 13.138 2.54443 13.1182H2.54346C2.53361 13.1164 2.52579 13.1122 2.52002 13.1074C2.51425 13.1027 2.51072 13.0977 2.50928 13.0938C2.50797 13.09 2.50768 13.0863 2.5083 13.083C2.50897 13.0795 2.51107 13.075 2.51514 13.0703C2.81865 12.7214 3.03905 12.3107 3.15967 11.8682L3.20459 11.6768C3.26655 11.3739 3.11878 11.0732 2.88135 10.8477L2.68213 10.6494C1.7123 9.64074 1.12842 8.33127 1.12842 6.90039C1.12869 3.72764 4.01066 1.13783 7.58643 1.1377Z" fill="#EAEBEC" stroke="#EAEBEC" stroke-width="0.976864"/>
<path d="M13.0388 5.96094C9.23097 5.96114 5.9519 8.81537 5.9519 12.5625C5.95208 16.3095 9.23107 19.1639 13.0388 19.1641C13.5297 19.1641 14.0098 19.1135 14.4744 19.0244C15.3768 19.5161 16.4078 19.7279 17.4353 19.625V19.624C17.5709 19.6107 17.7065 19.5935 17.8406 19.5693V19.5684C18.0569 19.5294 18.2596 19.4348 18.4275 19.293C18.5956 19.1509 18.7231 18.9668 18.7976 18.7598C18.8721 18.5527 18.8904 18.3298 18.8513 18.1133L18.8123 17.9531C18.7623 17.7972 18.6814 17.6522 18.575 17.5264L18.574 17.5254C18.4436 17.3716 18.3457 17.1947 18.2791 17.0059C19.4145 15.8455 20.1266 14.29 20.1267 12.5625C20.1267 8.81523 16.8468 5.96094 13.0388 5.96094Z" fill="#EAEBEC" stroke="#212225" stroke-width="1.5336"/>
</svg>
